# xmcd
#
# Track frame offsets:
#	150
#	13832
#	27094
#	46469
#	63250
#	78458
#	94064
#	109178
#	119513
#	144233
#	162523
#	179778
#	193775
#	210100
#	225882
#	246525
#
# Disc length: 3489 seconds
#
# Revision: 1
# Processed by: cddbd v1.5.1PL0 Copyright (c) Steve Scherf et al.
# Submitted via: audiograbber 1.83.01
#
DISCID=d90d9f10
DTITLE=Jimmy BUFFETT - License to chill
DYEAR=2004
DGENRE=Country
TTITLE0=Jimmy BUFFETT and friends - Hey good lookin'
TTITLE1=Jimmy BUFFETT and Alan JACKSON - Boats to build
TTITLE2=Jimmy BUFFETT and Kenny CHESNEY - License to chill
TTITLE3=Jimmy BUFFETT and Toby KEITH and George STRAIT - Coast of Carolina
TTITLE4=Jimmy BUFFETT and Toby KEITH - Piece of work
TTITLE5=Jimmy BUFFETT - Anything anytime anywhere
TTITLE6=Jimmy BUFFETT and Martina McBRIDE - Trip around the sun
TTITLE7=Jimmy BUFFETT - Simply complicated
TTITLE8=Jimmy BUFFETT - Coastal Confessions
TTITLE9=Jimmy BUFFETT and George STRAIT - Sea of a heartbreak
TTITLE10=Jimmy BUFFETT and Clint BLACK - Conky tonkin'
TTITLE11=Jimmy BUFFETT and Bill WITHERS - Playing the loser again
TTITLE12=Jimmy BUFFETT - Window on the world
TTITLE13=Jimmy BUFFETT and Nancy GRIFFITH - Someone I used to love
TTITLE14=Jimmy BUFFETT - Scarlet Begonias
TTITLE15=Jimmy BUFFETT - Back to the islands
EXTD=
EXTT0=
EXTT1=
EXTT2=
EXTT3=
EXTT4=
EXTT5=
EXTT6=
EXTT7=
EXTT8=
EXTT9=
EXTT10=
EXTT11=
EXTT12=
EXTT13=
EXTT14=
EXTT15=
PLAYORDER=
